<svg width="133" height="133" viewBox="0 0 133 133" fill="none" xmlns="http://www.w3.org/2000/svg">
<g opacity="0.2">
<path fill-rule="evenodd" clip-rule="evenodd" d="M57.9347 28.9764C58.9352 28.154 60.0878 27.5368 61.3268 27.16C62.5659 26.7832 63.867 26.6543 65.1559 26.7804C66.4448 26.9066 67.6962 27.2854 68.8386 27.8953C69.9811 28.5052 70.9922 29.3342 71.8142 30.335L93.5382 56.7783C94.3969 57.7738 95.0479 58.9309 95.4528 60.1817C95.8577 61.4325 96.0084 62.7516 95.896 64.0614C95.7836 65.3713 95.4103 66.6454 94.7982 67.8089C94.1861 68.9723 93.3475 70.0016 92.3317 70.8362C91.3159 71.6708 90.1435 72.2938 88.8834 72.6686C87.6233 73.0434 86.3009 73.1623 84.9942 73.0185C83.6874 72.8747 82.4226 72.471 81.2741 71.8311C80.1257 71.1913 79.1168 70.3282 78.3068 69.2927L56.5762 42.8492C54.9174 40.8291 54.1287 38.233 54.3835 35.6316C54.6382 33.0301 55.9156 30.6363 57.9347 28.9764Z" fill="#FF6F61"/>
<path fill-rule="evenodd" clip-rule="evenodd" d="M57.4638 96.7019C55.4679 95.014 54.224 92.6027 54.0055 89.998C53.7869 87.3932 54.6117 84.8083 56.2984 82.8115L78.3948 56.673C80.103 54.7476 82.4964 53.5666 85.0636 53.3822C87.6309 53.1978 90.1685 54.0246 92.1343 55.6861C94.1001 57.3476 95.3382 59.7119 95.5842 62.274C95.8302 64.8361 95.0644 67.3929 93.4506 69.398L71.3608 95.5366C70.5249 96.5258 69.5024 97.3406 68.3516 97.9346C67.2008 98.5285 65.9442 98.8899 64.6537 98.9981C63.3632 99.1064 62.064 98.9593 60.8303 98.5653C59.5966 98.1713 58.4527 97.5381 57.4638 96.7019Z" fill="#FF6F61"/>
<path fill-rule="evenodd" clip-rule="evenodd" d="M82.6389 63.0126C82.6207 65.6274 81.5645 68.1279 79.7027 69.964C77.8409 71.8001 75.326 72.8213 72.7112 72.8032L20.1292 72.4374C17.5144 72.4192 15.014 71.363 13.1779 69.5012C11.3418 67.6394 10.3205 65.1245 10.3387 62.5097C10.3569 59.8949 11.4131 57.3944 13.2749 55.5583C15.1367 53.7222 17.6516 52.701 20.2664 52.7191L72.8484 53.0849C75.4632 53.1031 77.9636 54.1593 79.7997 56.0211C81.6358 57.8829 82.6571 60.3978 82.6389 63.0126Z" fill="#FF6F61"/>
</g>
<path fill-rule="evenodd" clip-rule="evenodd" d="M75.2385 37.4314C75.9118 36.8784 76.7772 36.6155 77.6444 36.7005C78.5115 36.7854 79.3095 37.2112 79.8628 37.8842L101.587 64.3276C102.115 65.0034 102.359 65.8591 102.265 66.7119C102.171 67.5647 101.747 68.347 101.085 68.8917C100.422 69.4363 99.572 69.7001 98.7172 69.6268C97.8624 69.5534 97.0701 69.1487 96.5097 68.499L74.7856 42.0556C74.2327 41.3823 73.9698 40.5169 74.0547 39.6498C74.1396 38.7826 74.5654 37.9847 75.2385 37.4314Z" fill="#FF6F61"/>
<path fill-rule="evenodd" clip-rule="evenodd" d="M74.8373 95.0612C74.172 94.4986 73.7574 93.6948 73.6845 92.8265C73.6117 91.9583 73.8866 91.0967 74.4488 90.4311L96.5387 64.2925C97.1081 63.6507 97.9059 63.257 98.7616 63.1955C99.6174 63.1341 100.463 63.4097 101.119 63.9635C101.774 64.5173 102.186 65.3055 102.268 66.1595C102.35 67.0135 102.095 67.8658 101.557 68.5341L79.4674 94.6727C78.9048 95.338 78.101 95.7527 77.2328 95.8255C76.3645 95.8983 75.5029 95.6234 74.8373 95.0612Z" fill="#FF6F61"/>
<path fill-rule="evenodd" clip-rule="evenodd" d="M99.0463 66.4133C99.0402 67.2849 98.6882 68.1184 98.0676 68.7304C97.447 69.3425 96.6087 69.6829 95.7371 69.6768L33.296 69.2425C32.4244 69.2364 31.5909 68.8843 30.9789 68.2637C30.3668 67.6431 30.0264 66.8048 30.0325 65.9332C30.0385 65.0616 30.3906 64.2281 31.0112 63.6161C31.6318 63.0041 32.4701 62.6637 33.3417 62.6697L95.7828 63.1041C96.6544 63.1101 97.4879 63.4622 98.0999 64.0828C98.7119 64.7034 99.0524 65.5417 99.0463 66.4133Z" fill="#FF6F61"/>
</svg>
